<svg width="36" height="35" viewBox="0 0 36 35" fill="none" xmlns="http://www.w3.org/2000/svg">
<path d="M35.25 14.1401H22.255L27.5067 8.73514C22.2742 3.56014 13.8025 3.36847 8.56999 8.54347C3.33749 13.7376 3.33749 22.1135 8.56999 27.3076C13.8025 32.5018 22.2742 32.5018 27.5067 27.3076C30.1133 24.7393 31.4167 21.7301 31.4167 17.9351H35.25C35.25 21.7301 33.5633 26.656 30.19 29.991C23.4625 36.661 12.5375 36.661 5.80999 29.991C-0.898346 23.3401 -0.955846 12.5301 5.77165 5.8793C12.4992 -0.771531 23.29 -0.771531 30.0175 5.8793L35.25 0.493469V14.1401ZM18.9583 10.0768V18.2226L25.6667 22.2093L24.2867 24.5285L16.0833 19.6601V10.0768H18.9583Z" fill="#8F9C00"/>
</svg>
